<?xml version="1.0" standalone="no"?>
<!DOCTYPE svg PUBLIC "-//W3C//DTD SVG 20010904//EN"
 "http://www.w3.org/TR/2001/REC-SVG-20010904/DTD/svg10.dtd">
<svg version="1.0" xmlns="http://www.w3.org/2000/svg"
 width="532.000000pt" height="514.000000pt" viewBox="0 0 532.000000 514.000000"
 preserveAspectRatio="xMidYMid meet">

<g transform="translate(0.000000,514.000000) scale(0.100000,-0.100000)"
fill="#000000" stroke="none">
<path d="M1990 3970 c-20 -20 -20 -33 -20 -1341 0 -891 3 -1327 10 -1340 10
-19 30 -19 775 -19 745 0 765 0 775 19 7 13 10 450 10 1345 l0 1325 -22 15
c-20 14 -109 16 -765 16 -730 0 -743 0 -763 -20z m1515 -1345 l0 -1330 -744
-3 c-589 -2 -746 0 -753 10 -9 15 -11 2618 -2 2642 6 15 78 16 753 14 l746 -3
0 -1330z"/>
<path d="M2057 3903 c-10 -9 -8 -2525 1 -2541 7 -10 154 -12 703 -10 l694 3 0
1275 0 1275 -696 3 c-382 1 -699 -1 -702 -5z m193 -57 c0 -2 3 -13 7 -23 7
-17 6 -17 -21 0 -60 40 -112 -20 -86 -98 13 -39 35 -55 76 -55 21 0 25 -3 17
-11 -18 -18 -80 -2 -103 28 -14 18 -20 40 -20 74 0 65 23 89 85 89 25 0 45 -2
45 -4z m157 -13 c3 -9 -3 -9 -26 0 -39 15 -59 -1 -53 -44 4 -29 6 -30 38 -24
21 3 34 2 34 -5 0 -5 -15 -10 -34 -10 -30 0 -34 -3 -38 -31 -3 -19 1 -36 9
-45 12 -12 11 -14 -14 -14 l-28 0 0 95 0 96 54 -3 c31 -2 56 -8 58 -15z m153
-3 c17 -17 18 -24 8 -45 -6 -14 -17 -25 -25 -25 -19 0 -16 -10 12 -52 29 -43
30 -48 11 -48 -8 0 -26 20 -40 45 -15 25 -32 45 -38 45 -7 0 -9 -16 -6 -45 5
-37 3 -45 -11 -45 -14 0 -17 13 -16 95 l0 95 43 0 c29 0 48 -6 62 -20z m180 5
c0 -13 -4 -14 -21 -4 -33 17 -41 -1 -37 -90 3 -72 1 -81 -14 -81 -16 0 -18 11
-18 84 0 47 -4 88 -10 91 -5 3 -19 1 -30 -5 -16 -9 -20 -8 -20 5 0 12 14 15
75 15 61 0 75 -3 75 -15z m75 -80 c0 -84 -2 -95 -17 -95 -16 0 -18 11 -18 95
0 84 2 95 18 95 15 0 17 -11 17 -95z m155 80 c0 -12 -5 -13 -24 -3 -38 17 -58
4 -54 -34 3 -30 6 -33 36 -30 21 1 32 -2 32 -11 0 -9 -11 -12 -36 -9 l-36 4 3
-46 c4 -39 1 -46 -13 -46 -16 0 -18 11 -18 95 l0 95 55 0 c42 0 55 -4 55 -15z
m75 -80 c0 -78 -3 -95 -15 -95 -12 0 -15 17 -15 95 0 78 3 95 15 95 12 0 15
-17 15 -95z m160 86 c3 -6 -13 -9 -37 -8 -43 2 -43 2 -43 -33 0 -32 2 -35 30
-35 17 0 30 -4 30 -10 0 -5 -12 -8 -28 -6 -31 3 -43 -16 -33 -55 6 -24 10 -26
47 -21 21 3 39 1 39 -4 0 -5 -26 -9 -57 -9 l-58 0 0 95 0 95 52 0 c28 0 54 -4
58 -9z m148 -3 c35 -18 46 -40 47 -86 0 -62 -32 -92 -100 -92 l-50 0 0 95 0
95 41 0 c22 0 50 -5 62 -12z m-935 -160 c-3 -7 -18 -14 -34 -16 l-29 -3 25 15
c32 18 43 19 38 4z m-157 -153 c11 -33 27 -72 36 -88 16 -31 14 -41 -8 -32
-14 6 -49 72 -49 93 0 6 -5 23 -11 39 l-11 28 -14 -34 c-8 -19 -12 -41 -10
-48 3 -7 1 -13 -4 -13 -5 0 -14 -16 -21 -35 -12 -31 -29 -48 -29 -27 0 10 62
162 74 180 12 20 23 4 47 -63z m181 60 c9 -4 19 -13 22 -21 8 -20 -11 -54 -29
-54 -21 0 -19 -12 10 -54 27 -40 31 -56 15 -56 -6 0 -25 23 -42 50 -17 28 -35
50 -41 50 -5 0 -7 -19 -5 -44 5 -40 -2 -56 -25 -56 -2 0 1 179 3 197 0 4 75
-6 92 -12z m110 -33 c-3 -35 -1 -42 15 -42 43 0 59 55 21 69 -17 6 -18 9 -6
14 21 7 58 -19 58 -42 0 -9 -5 -22 -12 -29 -9 -9 -8 -16 5 -30 23 -25 21 -59
-3 -72 -21 -11 -87 -19 -105 -13 -7 2 -11 144 -5 191 0 2 8 2 17 0 14 -3 17
-12 15 -46z m339 0 c-3 -44 5 -50 40 -32 23 13 25 46 3 58 -9 5 -12 12 -7 15
15 9 53 -22 53 -43 0 -11 -9 -25 -20 -32 -26 -16 -25 -26 5 -70 40 -59 10 -55
-32 4 l-38 53 -5 -48 c-8 -76 -25 -55 -28 35 -3 88 1 112 20 106 8 -3 11 -20
9 -46z m164 -53 c0 -72 -3 -94 -13 -94 -11 0 -14 22 -13 93 0 50 0 95 1 98 0
3 6 4 13 2 8 -3 12 -32 12 -99z m163 78 c3 -16 1 -17 -17 -5 -25 16 -27 31 -4
26 10 -2 19 -11 21 -21z m62 14 c0 -5 -7 -11 -15 -15 -15 -5 -20 5 -8 17 9 10
23 9 23 -2z m55 -86 c0 -78 -3 -95 -15 -95 -12 0 -15 16 -13 92 1 51 2 94 3
96 0 1 6 2 13 2 9 0 12 -26 12 -95z m60 84 c10 -15 2 -19 -23 -12 -12 3 -19 9
-16 14 7 12 31 11 39 -2z m-664 -8 c-16 -11 -29 -76 -21 -115 7 -39 40 -61 64
-43 27 20 34 108 12 142 -13 20 -14 25 -2 25 32 0 53 -63 42 -125 -5 -25 -15
-39 -36 -50 -40 -20 -54 -19 -86 9 -24 20 -28 31 -28 74 0 54 22 92 53 92 13
0 13 -2 2 -9z m417 -2 c-27 -15 -21 -37 15 -55 65 -33 87 -75 52 -104 -25 -21
-89 -24 -104 -6 -17 20 -7 33 13 17 8 -7 27 -11 43 -9 22 2 28 8 28 28 0 19
-10 30 -42 48 -42 23 -51 41 -37 76 3 9 16 16 28 16 19 -1 19 -2 4 -11z m40
-251 c-3 -7 -18 -21 -35 -31 -24 -13 -36 -15 -57 -7 -14 5 -32 7 -39 4 -18 -7
-52 -68 -68 -122 -14 -47 -78 -112 -111 -112 -24 0 -23 21 6 78 34 70 40 100
21 128 -21 32 -35 30 -75 -11 -24 -25 -47 -37 -87 -45 -77 -16 -84 -31 -94
-202 -9 -147 -19 -180 -58 -191 -31 -8 -42 14 -62 125 -10 56 -26 112 -34 125
-19 28 -61 46 -90 39 -19 -5 -47 -48 -60 -94 -4 -12 -24 -43 -46 -68 -21 -25
-42 -57 -45 -70 -8 -30 9 -90 43 -158 58 -115 59 -152 3 -181 -31 -16 -34 -15
-95 14 -35 17 -71 31 -79 31 -14 0 -16 41 -16 368 0 273 3 371 12 380 18 18
1071 17 1066 0z m200 0 c9 -9 12 -80 12 -258 -1 -195 -3 -242 -13 -229 -30 39
-54 42 -164 23 -96 -16 -105 -16 -120 -1 -27 26 -3 59 76 106 39 23 76 51 82
62 12 24 8 69 -12 116 -12 29 -11 34 14 70 27 39 35 87 17 98 -5 3 -10 10 -10
16 0 13 104 11 118 -3z m-233 -214 c-15 -25 -109 -128 -210 -228 -199 -197
-272 -290 -413 -518 -94 -153 -180 -268 -220 -294 -31 -20 -26 -13 59 96 36
47 103 146 147 221 147 246 281 416 416 526 116 95 173 151 208 206 39 60 50
54 13 -9z m-404 -222 c-9 -15 -11 -14 -12 8 -2 51 3 125 9 135 11 17 14 -124
3 -143z m-302 -97 c2 -54 7 -87 25 -165 4 -14 -5 2 -18 35 -21 50 -25 76 -24
155 0 103 14 84 17 -25z m719 -17 c23 -1 42 -5 42 -10 0 -15 -71 -20 -133 -9
-35 6 -79 11 -98 11 -26 0 -31 3 -19 10 9 6 46 8 90 5 41 -3 94 -6 118 -7z
m224 -800 c-4 -4 -242 -7 -528 -6 l-519 3 66 38 c87 49 145 60 190 36 39 -21
127 -34 164 -25 32 8 69 77 60 115 -3 15 -24 49 -45 75 -47 57 -49 74 -14 116
57 67 105 72 213 23 31 -15 78 -28 104 -31 43 -4 52 -1 79 24 41 39 58 82 58
149 0 69 -12 93 -55 111 -42 17 -87 18 -155 2 -44 -10 -53 -9 -67 4 -15 15
-13 18 18 38 32 20 42 21 190 14 l156 -6 12 33 c6 19 26 49 44 67 l32 33 3
-402 c1 -222 -1 -406 -6 -411z m-433 557 c60 -16 98 -42 46 -31 -119 24 -146
27 -195 22 -55 -5 -55 -5 -20 8 47 18 104 19 169 1z m-806 -145 c15 -28 27
-55 27 -62 0 -19 -31 -48 -52 -48 -16 0 -18 9 -18 80 0 44 3 80 8 80 4 0 19
-23 35 -50z m472 -150 c4 -6 -10 -10 -34 -10 -23 0 -41 5 -41 10 0 6 15 10 34
10 19 0 38 -4 41 -10z m-483 -133 c36 -76 34 -141 -5 -135 -20 3 -22 10 -25
86 -2 45 1 82 6 82 4 0 15 -15 24 -33z m886 -236 c5 -3 16 -44 25 -91 29 -151
49 -264 54 -298 l5 -33 -49 3 c-46 3 -48 4 -51 35 -2 21 -10 34 -23 38 -30 10
-59 -4 -59 -28 0 -38 -14 -49 -61 -45 -30 2 -43 7 -41 16 1 8 21 100 42 204
22 105 43 194 46 200 6 9 97 9 112 -1z m-227 -23 c9 -13 13 -78 5 -78 -2 0
-13 16 -25 35 -16 28 -26 35 -52 35 -40 0 -69 -25 -69 -59 0 -36 22 -64 74
-95 113 -66 129 -161 36 -224 -28 -19 -44 -23 -83 -19 -57 5 -72 18 -81 70 -8
42 9 52 24 13 12 -31 57 -66 86 -66 64 0 88 98 37 146 -16 15 -40 32 -54 40
-98 50 -106 169 -15 210 36 16 105 12 117 -8z m-206 2 c-3 -5 -12 -10 -20 -10
-7 0 -16 -7 -19 -16 -9 -22 -7 -327 2 -340 4 -6 16 -16 27 -22 16 -9 7 -11
-53 -12 -46 0 -71 4 -67 10 3 6 13 10 21 10 12 0 14 30 14 181 0 172 -1 181
-20 186 -43 11 -17 23 51 23 44 0 68 -4 64 -10z"/>
<path d="M2493 3833 c-14 -5 -18 -59 -5 -67 11 -6 54 16 59 30 4 12 -23 45
-35 43 -4 0 -13 -3 -19 -6z"/>
<path d="M3284 3826 c-3 -7 -4 -44 -2 -82 3 -62 5 -69 25 -72 12 -2 31 6 42
17 36 36 23 137 -17 142 -4 0 -15 2 -25 4 -10 2 -20 -2 -23 -9z"/>
<path d="M2370 3545 c0 -27 4 -35 18 -35 26 0 54 33 46 54 -4 10 -17 16 -35
16 -26 0 -29 -3 -29 -35z"/>
<path d="M2550 3460 c0 -39 2 -41 26 -38 15 2 32 11 38 21 15 24 -3 51 -38 55
-24 3 -26 1 -26 -38z"/>
<path d="M2973 1809 c-7 -7 -13 -19 -13 -26 0 -7 -7 -13 -16 -13 -13 0 -15 -7
-10 -35 6 -31 4 -35 -14 -35 -28 0 -25 -25 6 -39 16 -7 24 -17 21 -26 -3 -7
-1 -27 6 -44 l11 -30 15 32 c8 18 13 36 12 40 -1 5 10 22 24 39 26 30 25 54
-2 44 -11 -5 -13 0 -9 22 3 15 0 40 -7 55 -10 23 -14 26 -24 16z"/>
<path d="M3628 1305 c2 -19 6 -35 8 -35 2 0 4 16 4 35 0 19 -4 35 -8 35 -4 0
-6 -16 -4 -35z"/>
<path d="M3677 1333 c-3 -5 -2 -15 2 -22 7 -10 10 -10 16 -1 4 6 3 16 -3 22
-5 5 -12 6 -15 1z"/>
<path d="M3724 1327 c-9 -24 6 -44 18 -22 7 11 6 21 -1 28 -7 7 -12 6 -17 -6z"/>
<path d="M3700 1286 c0 -9 5 -16 10 -16 6 0 10 4 10 9 0 6 -4 13 -10 16 -5 3
-10 -1 -10 -9z"/>
</g>
</svg>
